<svg width="88" height="79" viewBox="0 0 88 79" fill="none" xmlns="http://www.w3.org/2000/svg">
<path d="M40.5989 22.9511C40.5989 26.2731 40.0399 29.3338 38.9218 32.1334C37.8243 34.9121 36.2611 37.3043 34.2319 39.31C32.2234 41.3157 29.8008 42.8826 26.9641 44.0108C24.1274 45.139 20.9801 45.7031 17.5222 45.7031H0.191406V0.230469H17.5222C20.9801 0.230469 24.1274 0.794571 26.9641 1.92277C29.8008 3.05097 32.2234 4.62836 34.2319 6.65493C36.2611 8.66062 37.8243 11.0528 38.9218 13.8315C40.0399 16.6102 40.5989 19.6501 40.5989 22.9511ZM31.0328 22.9511C31.0328 20.5694 30.7222 18.4279 30.1011 16.5267C29.4799 14.6254 28.5895 13.0167 27.43 11.7005C26.2705 10.3843 24.8521 9.37097 23.1749 8.66062C21.5185 7.95027 19.6342 7.5951 17.5222 7.5951H9.57117V38.3385H17.5222C19.6342 38.3385 21.5185 37.9938 23.1749 37.3043C24.8521 36.594 26.2705 35.5807 27.43 34.2645C28.5895 32.9273 29.4799 31.3082 30.1011 29.4069C30.7222 27.5057 31.0328 25.3538 31.0328 22.9511ZM87.8543 22.9511C87.8543 26.2731 87.2952 29.3338 86.1771 32.1334C85.0797 34.9121 83.5164 37.3043 81.4872 39.31C79.4788 41.3157 77.0562 42.8826 74.2195 44.0108C71.3828 45.139 68.2355 45.7031 64.7776 45.7031H47.447V0.230469H64.7776C68.2355 0.230469 71.3828 0.794571 74.2195 1.92277C77.0562 3.05097 79.4788 4.62836 81.4872 6.65493C83.5164 8.66062 85.0797 11.0528 86.1771 13.8315C87.2952 16.6102 87.8543 19.6501 87.8543 22.9511ZM78.2882 22.9511C78.2882 20.5694 77.9776 18.4279 77.3564 16.5267C76.7352 14.6254 75.8449 13.0167 74.6853 11.7005C73.5258 10.3843 72.1075 9.37097 70.4303 8.66062C68.7738 7.95027 66.8896 7.5951 64.7776 7.5951H56.8267V38.3385H64.7776C66.8896 38.3385 68.7738 37.9938 70.4303 37.3043C72.1075 36.594 73.5258 35.5807 74.6853 34.2645C75.8449 32.9273 76.7352 31.3082 77.3564 29.4069C77.9776 27.5057 78.2882 25.3538 78.2882 22.9511Z" fill="#6A6A6A"/>
<path d="M26.1742 63.0316C26.0294 64.0712 26.0324 64.9404 26.1832 65.6392C26.3462 66.3541 26.6071 66.9437 26.9658 67.4066C27.3245 67.8695 27.7575 68.2181 28.2649 68.4519C28.7866 68.6882 29.3336 68.8469 29.906 68.9278C30.5357 69.0173 31.114 69.0036 31.641 68.8867C32.168 68.7698 32.6324 68.527 33.0342 68.1568C33.4502 67.7885 33.7986 67.2786 34.0792 66.6264C34.3577 65.9885 34.5654 65.1786 34.7021 64.1967L35.4714 58.6736L26.9496 57.4652L26.1742 63.0316ZM48.2648 60.4879L39.8504 59.2947L39.256 63.5614C39.1293 64.4711 39.0882 65.2899 39.1328 66.0179C39.1917 66.7478 39.3525 67.374 39.6153 67.8976C39.878 68.4205 40.2571 68.8423 40.7524 69.1629C41.26 69.4998 41.893 69.7224 42.6514 69.8295C43.4242 69.9392 44.0975 69.9241 44.6715 69.7851C45.2435 69.6597 45.7242 69.4038 46.1136 69.0173C46.5031 68.6308 46.8157 68.1156 47.0513 67.4719C47.3012 66.8301 47.4895 66.0545 47.6162 65.1446L48.2648 60.4879ZM52.5104 65.8383C52.2167 67.9465 51.766 69.7159 51.1582 71.1464C50.5626 72.5932 49.8345 73.7344 48.974 74.5695C48.1258 75.4208 47.1563 75.9902 46.0656 76.2774C44.9749 76.5641 43.7928 76.6176 42.5191 76.4367C41.8036 76.3356 41.1319 76.1299 40.5037 75.8198C39.8736 75.5247 39.2963 75.1114 38.772 74.5806C38.2599 74.0661 37.816 73.4289 37.4403 72.6689C37.0646 71.9089 36.7785 71.0288 36.5821 70.0293C35.7836 72.095 34.7477 73.5608 33.4744 74.4258C32.2011 75.2903 30.6629 75.5952 28.8598 75.3392C27.5432 75.1525 26.3559 74.719 25.2977 74.0393C24.2377 73.3734 23.361 72.4907 22.6677 71.3912C21.9745 70.2917 21.4923 68.9866 21.2212 67.4751C20.9624 65.9807 20.9626 64.3024 21.2221 62.4398L22.9175 50.2674L54.064 54.6842L52.5104 65.8383Z" fill="#6A6A6A"/>
</svg>
